<?xml version="1.0" encoding="UTF-8" standalone="no"?><!DOCTYPE svg PUBLIC "-//W3C//DTD SVG 1.1//EN" "http://www.w3.org/Graphics/SVG/1.1/DTD/svg11.dtd"><svg width="2344px" height="313px" version="1.1" xmlns="http://www.w3.org/2000/svg" xmlns:xlink="http://www.w3.org/1999/xlink" xml:space="preserve" xmlns:serif="http://www.serif.com/" style="fill-rule:evenodd;clip-rule:evenodd;stroke-linejoin:round;stroke-miterlimit:2;"><g transform="matrix(3.125,0,0,3.125,0,0)"><g transform="matrix(0.601634,0,0,0.604347,-2.1068,13.5685)"><g transform="matrix(139.605,0,0,139.605,42,100)"><path d="M0.075,-0.003c0.039,0.005 0.096,0.01 0.167,0.01c0.134,-0 0.241,-0.031 0.311,-0.094c0.059,-0.053 0.116,-0.149 0.116,-0.314c-0,-0.139 -0.043,-0.234 -0.116,-0.294c-0.064,-0.053 -0.151,-0.08 -0.279,-0.08c-0.075,0 -0.145,0.006 -0.199,0.016l0,0.756Zm0.147,-0.65c0.016,-0.003 0.039,-0.006 0.07,-0.006c0.137,-0 0.222,0.086 0.222,0.26c0,0.202 -0.094,0.289 -0.235,0.288c-0.02,0 -0.042,0 -0.057,-0.003l-0,-0.539Z" style="fill-rule:nonzero;"/></g><g transform="matrix(139.605,0,0,139.605,140.561,100)"><path d="M0.22,-0.709c-0,-0.046 -0.032,-0.079 -0.08,-0.079c-0.046,0 -0.079,0.033 -0.079,0.079c0,0.045 0.032,0.079 0.079,0.079c0.046,-0 0.08,-0.031 0.08,-0.079Zm-0.153,0.152l0,0.557l0.148,-0l-0,-0.557l-0.148,0Z" style="fill-rule:nonzero;"/></g><g transform="matrix(139.605,0,0,139.605,179.79,100)"><path d="M0.098,-0.425c0.036,-0.022 0.086,-0.038 0.137,-0.038c0.081,-0 0.1,0.042 0.1,0.097c-0.177,0 -0.304,0.067 -0.304,0.21c0,0.09 0.064,0.167 0.167,0.167c0.062,-0 0.116,-0.025 0.148,-0.069l0.003,0l0.009,0.058l0.133,-0c-0.006,-0.034 -0.008,-0.083 -0.008,-0.132l-0,-0.204c-0,-0.122 -0.047,-0.232 -0.22,-0.232c-0.087,0 -0.156,0.025 -0.193,0.047l0.028,0.096Zm0.241,0.234c0,0.071 -0.058,0.096 -0.093,0.096c-0.037,0 -0.07,-0.023 -0.07,-0.076c-0,-0.081 0.083,-0.1 0.163,-0.1l0,0.08Z" style="fill-rule:nonzero;"/></g><g transform="matrix(139.605,0,0,139.605,256.293,100)"><path d="M0.499,-0.475c-0.022,-0.057 -0.074,-0.093 -0.142,-0.093c-0.083,0 -0.132,0.046 -0.158,0.086l-0.003,-0l-0.007,-0.075l-0.126,0c0.002,0.049 0.004,0.102 0.004,0.167l0,0.39l0.145,-0l-0,-0.336c-0,-0.074 0.048,-0.112 0.089,-0.112c0.058,-0 0.079,0.053 0.079,0.119l0,0.329l0.145,-0l-0,-0.338c-0,-0.078 0.046,-0.11 0.087,-0.11c0.059,-0 0.081,0.053 0.081,0.133l0,0.315l0.145,-0l-0,-0.338c-0,-0.161 -0.075,-0.23 -0.172,-0.23c-0.062,0 -0.119,0.025 -0.165,0.093l-0.002,-0Z" style="fill-rule:nonzero;"/></g><g transform="matrix(139.605,0,0,139.605,382.216,100)"><path d="M0.299,-0.569c-0.151,0 -0.264,0.106 -0.264,0.293c0,0.181 0.108,0.287 0.258,0.287c0.124,-0 0.26,-0.082 0.26,-0.294c-0,-0.169 -0.098,-0.286 -0.254,-0.286Zm0.104,0.289c0,0.099 -0.038,0.182 -0.108,0.182c-0.072,0 -0.11,-0.082 -0.11,-0.181c-0,-0.085 0.029,-0.181 0.111,-0.181c0.076,-0 0.107,0.093 0.107,0.18Z" style="fill-rule:nonzero;"/></g><g transform="matrix(139.605,0,0,139.605,465.002,100)"><path d="M0.198,-0.482l-0.007,-0.075l-0.128,0c0.002,0.049 0.004,0.102 0.004,0.167l0,0.39l0.148,-0l-0,-0.332c-0,-0.084 0.055,-0.115 0.095,-0.115c0.063,-0 0.085,0.054 0.085,0.122l0,0.325l0.148,-0l-0,-0.341c-0,-0.156 -0.079,-0.227 -0.181,-0.227c-0.081,-0.001 -0.136,0.045 -0.161,0.086l-0.003,0Z" style="fill-rule:nonzero;"/></g><g transform="matrix(139.605,0,0,139.605,549.882,100)"><path d="M0.398,-0.804l0,0.301l-0.002,-0c-0.022,-0.038 -0.069,-0.065 -0.134,-0.065c-0.12,0 -0.225,0.104 -0.225,0.294c0,0.169 0.09,0.285 0.216,0.285c0.068,-0 0.128,-0.035 0.157,-0.09l0.003,0l0.007,0.079l0.13,-0c-0.002,-0.041 -0.004,-0.103 -0.004,-0.159l-0,-0.645l-0.148,0Zm0,0.576c0,0.088 -0.056,0.12 -0.1,0.12c-0.07,0 -0.112,-0.067 -0.112,-0.168c-0,-0.097 0.038,-0.175 0.114,-0.175c0.049,-0 0.098,0.04 0.098,0.121l0,0.102Z" style="fill-rule:nonzero;"/></g><g transform="matrix(139.605,0,0,139.605,665.614,100)"><path d="M0.222,-0l-0,-0.288c0.015,0.003 0.033,0.004 0.054,0.004c0.115,-0 0.291,-0.047 0.291,-0.258c-0,-0.071 -0.028,-0.133 -0.074,-0.172c-0.049,-0.042 -0.122,-0.061 -0.219,-0.061c-0.085,0 -0.151,0.007 -0.199,0.016l0,0.759l0.147,-0Zm-0,-0.654c0.013,-0.003 0.034,-0.006 0.064,-0.006c0.082,-0 0.134,0.043 0.134,0.125c0,0.083 -0.054,0.135 -0.146,0.135c-0.022,0 -0.038,-0.001 -0.052,-0.004l-0,-0.25Z" style="fill-rule:nonzero;"/></g><g transform="matrix(139.605,0,0,139.605,749.377,100)"><path d="M0.098,-0.425c0.036,-0.022 0.086,-0.038 0.137,-0.038c0.081,-0 0.1,0.042 0.1,0.097c-0.177,0 -0.304,0.067 -0.304,0.21c0,0.09 0.064,0.167 0.167,0.167c0.062,-0 0.116,-0.025 0.148,-0.069l0.003,0l0.009,0.058l0.133,-0c-0.006,-0.034 -0.008,-0.083 -0.008,-0.132l-0,-0.204c-0,-0.122 -0.047,-0.232 -0.22,-0.232c-0.087,0 -0.156,0.025 -0.193,0.047l0.028,0.096Zm0.241,0.234c0,0.071 -0.058,0.096 -0.093,0.096c-0.037,0 -0.07,-0.023 -0.07,-0.076c-0,-0.081 0.083,-0.1 0.163,-0.1l0,0.08Z" style="fill-rule:nonzero;"/></g><g transform="matrix(139.605,0,0,139.605,825.88,100)"><path d="M0.445,-0.547c-0.024,-0.01 -0.068,-0.021 -0.116,-0.021c-0.184,0 -0.292,0.128 -0.292,0.295c0,0.177 0.106,0.283 0.269,0.283c0.059,-0 0.11,-0.012 0.135,-0.024l-0.016,-0.111c-0.024,0.011 -0.053,0.018 -0.09,0.018c-0.085,0 -0.148,-0.063 -0.148,-0.172c-0,-0.098 0.054,-0.173 0.147,-0.173c0.041,-0 0.068,0.009 0.087,0.018l0.024,-0.113Z" style="fill-rule:nonzero;"/></g><g transform="matrix(139.605,0,0,139.605,891.355,100)"><path d="M0.538,-0.557l-0.172,0l-0.111,0.174c-0.013,0.021 -0.025,0.044 -0.037,0.069l-0.003,0l-0,-0.49l-0.148,0l0,0.804l0.148,-0l-0,-0.185l0.039,-0.053l0.13,0.238l0.176,-0l-0.204,-0.328l0.182,-0.229Z" style="fill-rule:nonzero;"/></g><g transform="matrix(139.605,0,0,139.605,968.137,100)"><path d="M0.098,-0.425c0.036,-0.022 0.086,-0.038 0.137,-0.038c0.081,-0 0.1,0.042 0.1,0.097c-0.177,0 -0.304,0.067 -0.304,0.21c0,0.09 0.064,0.167 0.167,0.167c0.062,-0 0.116,-0.025 0.148,-0.069l0.003,0l0.009,0.058l0.133,-0c-0.006,-0.034 -0.008,-0.083 -0.008,-0.132l-0,-0.204c-0,-0.122 -0.047,-0.232 -0.22,-0.232c-0.087,0 -0.156,0.025 -0.193,0.047l0.028,0.096Zm0.241,0.234c0,0.071 -0.058,0.096 -0.093,0.096c-0.037,0 -0.07,-0.023 -0.07,-0.076c-0,-0.081 0.083,-0.1 0.163,-0.1l0,0.08Z" style="fill-rule:nonzero;"/></g><g transform="matrix(139.605,0,0,139.605,1044.64,100)"><path d="M0.409,-0.49l-0.002,-0c-0.025,-0.044 -0.07,-0.078 -0.14,-0.078c-0.123,0 -0.23,0.109 -0.23,0.293c0,0.152 0.083,0.271 0.215,0.271c0.061,-0 0.111,-0.027 0.139,-0.071l0.002,0l0,0.041c0,0.107 -0.055,0.154 -0.138,0.154c-0.059,0 -0.111,-0.018 -0.144,-0.036l-0.029,0.113c0.044,0.025 0.111,0.038 0.176,0.038c0.271,-0 0.281,-0.202 0.281,-0.311l-0,-0.314c-0,-0.078 0.002,-0.127 0.005,-0.167l-0.129,0l-0.006,0.067Zm-0.018,0.258c0,0.094 -0.06,0.116 -0.094,0.116c-0.07,0 -0.111,-0.066 -0.111,-0.163c-0,-0.105 0.045,-0.173 0.112,-0.173c0.05,-0 0.093,0.041 0.093,0.112l0,0.108Z" style="fill-rule:nonzero;"/></g><g transform="matrix(139.605,0,0,139.605,1129.24,100)"><path d="M0.511,-0.234c0.003,-0.016 0.004,-0.037 0.004,-0.059c-0,-0.18 -0.088,-0.276 -0.223,-0.276c-0.163,0 -0.255,0.138 -0.255,0.298c0,0.173 0.098,0.281 0.27,0.281c0.069,-0 0.134,-0.012 0.18,-0.032l-0.021,-0.102c-0.038,0.013 -0.081,0.023 -0.136,0.023c-0.08,0 -0.148,-0.038 -0.152,-0.133l0.333,-0Zm-0.333,-0.103c0.004,-0.055 0.034,-0.129 0.105,-0.129c0.073,-0 0.096,0.071 0.095,0.129l-0.2,0Z" style="fill-rule:nonzero;"/></g></g></g></svg>