<?xml version="1.0" encoding="UTF-8" standalone="no"?><!DOCTYPE svg PUBLIC "-//W3C//DTD SVG 1.1//EN" "http://www.w3.org/Graphics/SVG/1.1/DTD/svg11.dtd"><svg width="1875px" height="313px" version="1.1" xmlns="http://www.w3.org/2000/svg" xmlns:xlink="http://www.w3.org/1999/xlink" xml:space="preserve" xmlns:serif="http://www.serif.com/" style="fill-rule:evenodd;clip-rule:evenodd;stroke-linejoin:round;stroke-miterlimit:2;"><g transform="matrix(3.125,0,0,3.125,0,0)"><g transform="matrix(0.848717,0,0,0.848717,-4.7999,12.1075)"><path d="M104.912,40.118l0,16.317l15.503,-0l-0,26.262c-1.816,0.838 -5.587,1.536 -10.615,1.536c-17.737,0 -31.005,-12.572 -31.005,-37.421c0,-25.97 14.525,-37.703 33.659,-37.703c9.495,-0 15.632,1.676 20.514,3.911l4.324,-17.021c-5.161,-2.511 -14.227,-4.463 -25.117,-4.463c-30.866,-0 -55.001,19.388 -55.001,55.695c0,17.026 5.301,31.694 14.507,40.768c9.07,8.925 21.5,13.109 37.84,13.109c12.149,0 24.284,-2.929 30.561,-5.299l-0,-55.691l-35.17,0Z" style="fill-rule:nonzero;"/><path d="M189.79,20.574c-21.085,-0 -36.847,14.781 -36.847,40.895c-0,25.277 15.065,40.058 36.009,40.058c17.318,-0 36.289,-11.435 36.289,-41.035c-0,-23.602 -13.67,-39.918 -35.451,-39.918Zm14.527,40.337c0,13.825 -5.307,25.416 -15.085,25.416c-10.058,0 -15.366,-11.451 -15.366,-25.277c0,-11.87 4.051,-25.277 15.505,-25.277c10.616,0 14.946,12.988 14.946,25.138Z" style="fill-rule:nonzero;"/><rect x="240.196" y="-12.233" width="20.644" height="112.225" style="fill-rule:nonzero;"/><path d="M325.634,-12.233l-0,42.011l-0.279,-0c-3.074,-5.299 -9.639,-9.065 -18.719,-9.065c-16.753,0 -31.399,14.504 -31.399,41.036c-0,23.601 12.553,39.778 30.142,39.778c9.499,-0 17.88,-4.881 21.929,-12.551l0.418,-0l0.977,11.015l18.133,0c-0.279,-5.724 -0.558,-14.379 -0.558,-22.197l-0,-90.027l-20.644,-0Zm-0,80.394c-0,12.301 -7.823,16.77 -13.969,16.77c-9.778,0 -15.645,-9.357 -15.645,-23.462c0,-13.546 5.308,-24.439 15.925,-24.439c6.844,-0 13.689,5.586 13.689,16.898l-0,14.233Z" style="fill-rule:nonzero;"/><path d="M416.778,99.991l0,-40.205c2.096,0.418 4.61,0.558 7.544,0.558c16.064,-0 40.62,-6.555 40.62,-36.011c-0,-9.916 -3.906,-18.573 -10.322,-24.011c-6.835,-5.857 -17.028,-8.507 -30.578,-8.507c-11.867,0 -21.073,0.976 -27.768,2.231l-0,105.945l20.504,0Zm0,-91.301c1.816,-0.419 4.75,-0.838 8.94,-0.838c11.455,0 18.719,6.006 18.719,17.459c0,11.593 -7.543,18.856 -20.395,18.856c-3.073,-0 -5.308,-0.14 -7.264,-0.559l0,-34.918Z" style="fill-rule:nonzero;"/><rect x="478.92" y="-12.233" width="20.644" height="112.225" style="fill-rule:nonzero;"/><path d="M522.468,40.666c5.022,-3.075 11.998,-5.312 19.123,-5.312c11.317,0 13.971,5.871 13.971,13.559c-24.725,0 -42.439,9.342 -42.439,29.3c-0,12.577 8.927,23.314 23.299,23.314c8.662,-0 16.206,-3.486 20.675,-9.621l0.419,-0l1.255,8.085l18.553,0c-0.838,-4.746 -1.117,-11.587 -1.117,-18.428l-0,-28.467c-0,-17.043 -6.556,-32.383 -30.704,-32.383c-12.155,0 -21.779,3.486 -26.94,6.554l3.905,13.399Zm33.653,32.669c0,9.919 -8.103,13.411 -12.993,13.411c-5.169,0 -9.78,-3.213 -9.78,-10.617c0,-11.316 11.596,-13.971 22.773,-13.971l0,11.177Z" style="fill-rule:nonzero;"/><path d="M612.925,32.736l-0.977,-10.487l-17.854,-0c0.279,6.851 0.558,14.262 0.558,23.351l-0,54.391l20.644,0l-0,-46.281c-0,-11.794 7.684,-16.122 13.272,-16.122c8.801,0 11.874,7.539 11.874,17.032l0,45.371l20.644,0l0,-47.605c0,-21.771 -11.019,-31.673 -25.254,-31.673c-11.316,-0.139 -18.999,6.29 -22.489,12.023l-0.418,-0Z" style="fill-rule:nonzero;"/></g></g></svg>