<?xml version="1.0" encoding="UTF-8" standalone="no"?><!DOCTYPE svg PUBLIC "-//W3C//DTD SVG 1.1//EN" "http://www.w3.org/Graphics/SVG/1.1/DTD/svg11.dtd"><svg width="2813px" height="313px" version="1.1" xmlns="http://www.w3.org/2000/svg" xmlns:xlink="http://www.w3.org/1999/xlink" xml:space="preserve" xmlns:serif="http://www.serif.com/" style="fill-rule:evenodd;clip-rule:evenodd;stroke-linejoin:round;stroke-miterlimit:2;"><g transform="matrix(3.125,0,0,3.125,0,0)"><g transform="matrix(0.948893,0,0,0.948893,449.41,3)"><path d="M-374.291,99.992l0,-35.823c1.867,0.373 4.108,0.497 6.722,0.497c14.313,0 36.192,-5.84 36.192,-32.085c0,-8.836 -3.48,-16.549 -9.197,-21.394c-6.09,-5.219 -15.171,-7.58 -27.244,-7.58c-10.574,0 -18.777,0.87 -24.742,1.988l-0,94.397l18.269,0Zm0,-81.349c1.618,-0.374 4.232,-0.747 7.966,-0.747c10.206,0 16.679,5.351 16.679,15.556c-0,10.329 -6.722,16.801 -18.172,16.801c-2.739,-0 -4.73,-0.125 -6.473,-0.498l0,-31.112Z" style="fill-rule:nonzero;"/><rect x="-318.922" y="0" width="18.394" height="99.992" style="fill-rule:nonzero;"/><path d="M-280.121,47.134c4.475,-2.74 10.69,-4.733 17.039,-4.733c10.083,-0 12.448,5.231 12.448,12.081c-22.03,-0 -37.813,8.323 -37.813,26.106c-0,11.206 7.954,20.772 20.759,20.772c7.718,0 14.44,-3.106 18.422,-8.572l0.373,-0l1.118,7.204l16.53,0c-0.746,-4.229 -0.995,-10.324 -0.995,-16.419l0,-25.364c0,-15.185 -5.841,-28.853 -27.357,-28.853c-10.83,-0 -19.405,3.106 -24.004,5.839l3.48,11.939Zm29.985,29.107c-0,8.838 -7.22,11.95 -11.577,11.95c-4.606,-0 -8.714,-2.863 -8.714,-9.46c0,-10.083 10.332,-12.448 20.291,-12.448l-0,9.958Z" style="fill-rule:nonzero;"/><path d="M-221.9,30.724l-0,13.543l9.08,-0l0,31.979c0,7.715 0.373,24.99 20.26,24.99c5.349,0 9.827,-0.621 12.314,-1.615l-0.248,-14.042c-1.866,0.373 -3.359,0.622 -5.971,0.622c-5.598,-0 -8.21,-3.484 -8.21,-11.821l0,-30.113l15.3,-0l0,-13.543l-15.3,-0l0,-18.036l-18.145,5.348l0,12.688l-9.08,-0Z" style="fill-rule:nonzero;"/><path d="M-148.9,11.809c0,-5.717 -3.977,-9.819 -9.943,-9.819c-5.718,0 -9.819,4.102 -9.819,9.819c-0,5.593 3.977,9.819 9.819,9.819c5.717,-0 9.943,-3.853 9.943,-9.819Zm-19.016,18.915l0,69.268l18.394,0l0,-69.268l-18.394,-0Z" style="fill-rule:nonzero;"/><path d="M-116.682,40.068l-0.87,-9.344l-15.908,-0c0.248,6.105 0.497,12.707 0.497,20.805l0,48.463l18.394,0l0,-41.237c0,-10.508 6.846,-14.364 11.825,-14.364c7.842,-0 10.58,6.717 10.58,15.175l0,40.426l18.394,0l0,-42.416c0,-19.398 -9.818,-28.22 -22.501,-28.22c-10.083,-0.125 -16.929,5.604 -20.038,10.712l-0.373,-0Z" style="fill-rule:nonzero;"/><path d="M-17.282,30.724l-0,42.655c-0,7.846 -5.352,12.946 -11.327,12.946c-7.593,0 -10.581,-6.592 -10.581,-17.041l0,-38.56l-18.394,-0l0,41.297c0,20.766 8.949,29.339 22.128,29.339c10.705,0 17.054,-6.088 19.914,-10.561l0.373,-0l0.87,9.193l16.033,0c-0.249,-5.845 -0.622,-12.933 -0.622,-21.141l-0,-48.127l-18.394,-0Z" style="fill-rule:nonzero;"/><path d="M71.518,40.912c-2.734,-7.083 -9.197,-11.556 -17.652,-11.556c-10.332,-0 -16.432,5.715 -19.666,10.686l-0.372,-0l-0.87,-9.318l-15.66,-0c0.248,6.105 0.497,12.707 0.497,20.805l0,48.463l18.021,0l-0,-41.735c-0,-9.264 5.975,-13.99 11.079,-13.99c7.22,-0 9.834,6.592 9.834,14.802l-0,40.923l18.02,0l0,-42.043c0,-9.702 5.726,-13.682 10.83,-13.682c7.344,-0 10.083,6.592 10.083,16.543l-0,39.182l18.021,0l-0,-42.043c-0,-20.02 -9.321,-28.593 -21.382,-28.593c-7.718,-0 -14.813,3.106 -20.534,11.556l-0.249,-0Z" style="fill-rule:nonzero;"/><path d="M176.125,99.992l0,-35.823c1.867,0.373 4.108,0.497 6.721,0.497c14.314,0 36.193,-5.84 36.193,-32.085c0,-8.836 -3.48,-16.549 -9.197,-21.394c-6.09,-5.219 -15.171,-7.58 -27.244,-7.58c-10.574,0 -18.777,0.87 -24.742,1.988l-0,94.397l18.269,0Zm0,-81.349c1.618,-0.374 4.232,-0.747 7.966,-0.747c10.206,0 16.679,5.351 16.679,15.556c-0,10.329 -6.722,16.801 -18.172,16.801c-2.739,-0 -4.73,-0.125 -6.473,-0.498l0,-31.112Z" style="fill-rule:nonzero;"/><rect x="231.493" y="0" width="18.394" height="99.992" style="fill-rule:nonzero;"/><path d="M270.295,47.134c4.474,-2.74 10.69,-4.733 17.039,-4.733c10.083,-0 12.448,5.231 12.448,12.081c-22.03,-0 -37.814,8.323 -37.814,26.106c0,11.206 7.954,20.772 20.76,20.772c7.718,0 14.44,-3.106 18.422,-8.572l0.373,-0l1.118,7.204l16.53,0c-0.746,-4.229 -0.995,-10.324 -0.995,-16.419l0,-25.364c0,-15.185 -5.841,-28.853 -27.357,-28.853c-10.83,-0 -19.405,3.106 -24.004,5.839l3.48,11.939Zm29.985,29.107c-0,8.838 -7.22,11.95 -11.577,11.95c-4.606,-0 -8.714,-2.863 -8.714,-9.46c0,-10.083 10.332,-12.448 20.291,-12.448l-0,9.958Z" style="fill-rule:nonzero;"/><path d="M350.892,40.068l-0.87,-9.344l-15.909,-0c0.249,6.105 0.498,12.707 0.498,20.805l-0,48.463l18.394,0l-0,-41.237c-0,-10.508 6.846,-14.364 11.825,-14.364c7.842,-0 10.58,6.717 10.58,15.175l0,40.426l18.394,0l-0,-42.416c-0,-19.398 -9.818,-28.22 -22.501,-28.22c-10.083,-0.125 -16.929,5.604 -20.038,10.712l-0.373,-0Z" style="fill-rule:nonzero;"/></g></g></svg>