<?xml version="1.0" encoding="UTF-8" standalone="no"?><!DOCTYPE svg PUBLIC "-//W3C//DTD SVG 1.1//EN" "http://www.w3.org/Graphics/SVG/1.1/DTD/svg11.dtd"><svg width="100%" height="100%" viewBox="0 0 800 400" version="1.1" xmlns="http://www.w3.org/2000/svg" xmlns:xlink="http://www.w3.org/1999/xlink" xml:space="preserve" xmlns:serif="http://www.serif.com/" style="fill-rule:evenodd;clip-rule:evenodd;stroke-linejoin:round;stroke-miterlimit:2;"><g transform="matrix(3.125,0,0,3.125,0,0)"><g transform="matrix(1,0,0,1,0,-0.665999)"><g transform="matrix(1,0,0,1,0,-64)"><path d="M11,130C10.56,122.384 14.418,116.474 23.596,115.211C33.397,113.862 39.849,110.422 43.3,105.139C45.794,101.322 44.809,97.022 51.493,89.578C58.971,81.25 79.899,77.826 106.417,79.256C118.983,79.934 121.624,80.429 131.09,78.731C143.335,76.535 161.572,76.78 172.057,78.591C179.272,79.837 187.926,80.37 195,79.594C212.188,77.707 223.919,90.939 207,101C191.904,109.977 215.516,107.292 228,107C247.345,106.547 260.978,116.5 229.325,128.076C220.058,131.466 213.661,133.1 205,136C169.476,147.896 204.034,161.021 197,172C194.333,176.164 190.483,181.257 156.994,179.971C142.127,179.4 110.777,175.582 92.444,175.253C77.271,174.981 54.318,180.376 47,178C23.259,170.291 47.256,158.447 48,155C48.994,150.399 36.131,147.426 28.536,145.494C15.589,142.199 11.602,140.411 11,130Z" style="fill:rgb(0,164,255);"/></g><g transform="matrix(1,0,0,1,0,-64)"><path d="M212,152C227,149 230,149 236,151C242,153 233,159 231,164C229,169 216,166 211,166C206,166 200.84,157.774 205,155C208,153 210.667,152.333 212,152" style="fill:rgb(0,164,255);"/></g><g transform="matrix(1,0,0,1,0,-64)"><path d="M22,105C25.667,105.167 34,106 37,103C40,100 38,96 29,97C20,98 15,99.764 15,102C15,104 20.335,104.924 22,105Z" style="fill:rgb(0,164,255);"/></g><g transform="matrix(1,0,0,1,0,-64)"><path d="M27,157C29,156.5 33,159 29,162C25,165 12,162 14,158C16,154 25.667,157.333 27,157Z" style="fill:rgb(0,164,255);"/></g></g></g></svg>