<?xml version="1.0" encoding="UTF-8" standalone="no"?>
<!DOCTYPE svg PUBLIC "-//W3C//DTD SVG 1.1//EN" "http://www.w3.org/Graphics/SVG/1.1/DTD/svg11.dtd">
<svg width="100%" height="100%" viewBox="0 0 1000 1000" version="1.1" xmlns="http://www.w3.org/2000/svg" xmlns:xlink="http://www.w3.org/1999/xlink" xml:space="preserve" xmlns:serif="http://www.serif.com/" style="fill-rule:evenodd;clip-rule:evenodd;stroke-linejoin:round;stroke-miterlimit:2;">
    <g transform="matrix(0.0436584,9.72761e-34,9.72761e-34,-0.0436584,-68.8567,1185.74)">
        <path d="M22421,13172l0,-317l88,250c49,138 91,260 95,272c6,18 0,26 -39,48c-25,15 -68,36 -95,46l-50,19l1,-318Z" style="fill-rule:nonzero;"/>
    </g>
    <g transform="matrix(0.0436584,9.72761e-34,9.72761e-34,-0.0436584,-68.8567,1185.74)">
        <path d="M22187,13465c-53,-20 -135,-76 -183,-127l-42,-43l144,-294c79,-161 145,-296 149,-299c3,-3 5,171 5,386c0,439 6,406 -73,377Z" style="fill-rule:nonzero;"/>
    </g>
    <g transform="matrix(0.0436584,9.72761e-34,9.72761e-34,-0.0436584,-68.8567,1185.74)">
        <path d="M22732,13249c-5,-13 -78,-220 -162,-459l-152,-435l26,-53c15,-30 30,-52 35,-50c4,2 119,128 255,281l248,279l-45,114c-47,115 -97,209 -161,298c-34,49 -35,49 -44,25Z" style="fill-rule:nonzero;"/>
    </g>
    <g transform="matrix(0.0436584,9.72761e-34,9.72761e-34,-0.0436584,-68.8567,1185.74)">
        <path d="M21842,13138c-39,-48 -182,-398 -182,-448c0,-14 560,-381 571,-374c5,3 9,13 9,23c0,14 -372,796 -384,809c-2,1 -8,-3 -14,-10Z" style="fill-rule:nonzero;"/>
    </g>
    <g transform="matrix(0.0436584,9.72761e-34,9.72761e-34,-0.0436584,-68.8567,1185.74)">
        <path d="M22831,12426c-105,-119 -191,-217 -191,-218c0,-2 97,-2 215,1l215,3l0,-139l-52,-7c-29,-3 -142,-6 -250,-6c-109,0 -198,-3 -198,-7c0,-17 356,-741 362,-737c10,7 75,210 98,309c63,270 69,654 14,930c-9,44 -17,81 -19,83c-1,1 -88,-94 -194,-212Z" style="fill-rule:nonzero;"/>
    </g>
    <g transform="matrix(0.0436584,9.72761e-34,9.72761e-34,-0.0436584,-68.8567,1185.74)">
        <path d="M21611,12438c-16,-107 -27,-433 -15,-440c15,-8 566,128 574,143c5,7 6,17 3,22c-8,12 -531,357 -542,357c-4,0 -13,-37 -20,-82Z" style="fill-rule:nonzero;"/>
    </g>
    <g transform="matrix(0.0436584,9.72761e-34,9.72761e-34,-0.0436584,-68.8567,1185.74)">
        <path d="M22420,11377c0,-699 -13,-632 111,-570c85,42 201,151 268,250l42,63l-207,427c-114,236 -209,430 -210,432c-2,2 -4,-269 -4,-602Z" style="fill-rule:nonzero;"/>
    </g>
    <g transform="matrix(0.0436584,9.72761e-34,9.72761e-34,-0.0436584,-68.8567,1185.74)">
        <path d="M21842,11902l-234,-56l7,-56c19,-161 93,-416 159,-550c21,-41 40,-78 44,-82c4,-4 54,126 111,290c57,163 121,345 142,405c33,93 36,107 21,106c-9,0 -122,-26 -250,-57Z" style="fill-rule:nonzero;"/>
    </g>
    <g transform="matrix(0.0436584,9.72761e-34,9.72761e-34,-0.0436584,-68.8567,1185.74)">
        <path d="M22237,11838c-8,-24 -78,-224 -156,-445c-77,-222 -141,-407 -141,-412c0,-15 94,-106 145,-141c51,-35 128,-70 156,-70c18,0 19,15 19,555c0,305 -2,555 -4,555c-2,0 -11,-19 -19,-42Z" style="fill-rule:nonzero;"/>
    </g>
    <g transform="matrix(0.0436584,9.72761e-34,9.72761e-34,-0.0436584,-68.8567,1185.74)">
        <path d="M14017,10556c-69,-29 -122,-64 -190,-126l-48,-45l161,-327c89,-181 163,-328 166,-328c2,0 4,191 4,425c0,484 10,443 -93,401Z" style="fill-rule:nonzero;"/>
    </g>
    <g transform="matrix(0.0436584,9.72761e-34,9.72761e-34,-0.0436584,-68.8567,1185.74)">
        <path d="M14280,10239c0,-189 4,-337 9,-329c4,8 52,140 107,294l98,279l-25,20c-30,25 -115,65 -157,73l-32,7l0,-344Z" style="fill-rule:nonzero;"/>
    </g>
    <g transform="matrix(0.0436584,9.72761e-34,9.72761e-34,-0.0436584,-68.8567,1185.74)">
        <path d="M14462,9863c-95,-268 -172,-495 -172,-503c0,-17 47,-120 54,-120c3,0 130,137 282,306l276,305l-23,62c-54,149 -149,327 -216,405l-28,33l-173,-488Z" style="fill-rule:nonzero;"/>
    </g>
    <g transform="matrix(0.0436584,9.72761e-34,9.72761e-34,-0.0436584,-68.8567,1185.74)">
        <path d="M13591,10098c-56,-113 -141,-343 -140,-378c0,-8 39,-40 87,-70c48,-30 185,-118 305,-197c120,-79 222,-143 227,-143c36,0 12,60 -192,475c-117,239 -216,435 -220,435c-3,0 -34,-55 -67,-122Z" style="fill-rule:nonzero;"/>
    </g>
    <g transform="matrix(0.0436584,9.72761e-34,9.72761e-34,-0.0436584,-68.8567,1185.74)">
        <path d="M14739,9434c-112,-124 -206,-229 -207,-235c-2,-6 84,-7 232,-2l236,6l0,-163l-275,0c-214,0 -275,-3 -274,-12c0,-7 89,-193 198,-413l197,-400l33,90c136,371 170,832 94,1263c-9,50 -20,92 -24,92c-4,0 -99,-101 -210,-226Z" style="fill-rule:nonzero;"/>
    </g>
    <g transform="matrix(0.0436584,9.72761e-34,9.72761e-34,-0.0436584,-68.8567,1185.74)">
        <path d="M13406,9513c-24,-117 -42,-443 -29,-509l8,-41l309,74c277,65 325,81 326,105c0,6 -594,398 -604,398c-2,0 -7,-12 -10,-27Z" style="fill-rule:nonzero;"/>
    </g>
    <g transform="matrix(0.0436584,9.72761e-34,9.72761e-34,-0.0436584,-68.8567,1185.74)">
        <path d="M14280,8291l0,-663l28,6c65,15 173,79 242,143c75,69 190,214 190,238c0,13 -442,920 -454,933c-3,3 -6,-293 -6,-657Z" style="fill-rule:nonzero;"/>
    </g>
    <g transform="matrix(0.0436584,9.72761e-34,9.72761e-34,-0.0436584,-68.8567,1185.74)">
        <path d="M13655,8866l-260,-62l3,-45c6,-77 52,-279 92,-399c45,-139 127,-317 139,-304c7,8 311,857 311,870c0,7 -22,3 -285,-60Z" style="fill-rule:nonzero;"/>
    </g>
    <g transform="matrix(0.0436584,9.72761e-34,9.72761e-34,-0.0436584,-68.8567,1185.74)">
        <path d="M14099,8838c0,-2 -78,-221 -173,-488l-173,-485l25,-30c67,-82 214,-179 305,-201l27,-6l0,606c0,333 -2,606 -5,606c-3,0 -5,-1 -6,-2Z" style="fill-rule:nonzero;"/>
    </g>
    <path d="M796.774,563.247c23.38,-1.965 41.897,-21.464 41.897,-45.333l-0,-40.059l2.015,-2.06c23.532,4.51 46.852,11.331 68.841,20.316c3.318,1.309 4.759,1.615 12.224,2.444c17.289,1.878 32.919,4.279 38.245,5.894c1.746,0.524 2.489,1.048 3.449,2.402c3.187,4.584 5.85,16.983 7.728,35.581c0.873,8.863 0.742,39.249 -0.219,47.806c-1.615,14.145 -4.016,25.016 -7.291,32.962c-2.357,5.719 -2.445,5.981 -3.492,15.717c-2.664,24.929 -8.164,50.033 -14.408,65.706c-6.286,15.804 -13.403,24.667 -22.003,27.548c-3.187,1.048 -12.268,2.445 -19.69,3.056c-12.443,1.005 -38.463,0 -52.085,-2.008l-4.104,-0.611l-118.052,39.729l-118.096,39.685l-12.137,0l-0.262,2.052c-1.571,12.225 -5.806,24.143 -11.875,33.224c-3.23,4.89 -10.041,11.919 -14.844,15.324c-12.66,9.038 -30.08,13.36 -53.83,13.316c-7.117,0 -11.22,-0.218 -14.844,-0.742c-11.744,-1.79 -22.135,-5.588 -27.81,-10.172c-1.005,-0.83 -2.009,-1.485 -2.227,-1.485c-0.218,0 -4.104,1.048 -8.644,2.358c-33.399,9.561 -69.81,14.32 -104.082,13.665c-18.555,-0.349 -27.286,-1.223 -49.552,-4.934c-52.085,-8.644 -125.78,-23.138 -217.419,-42.741c-33.136,-7.116 -49.159,-11.57 -59.506,-16.634c-11.657,-5.675 -12.224,-10.653 -1.877,-15.892l3.361,-1.659l-0.742,-7.203c-1.484,-14.014 -2.183,-24.754 -2.707,-41.126c-0.786,-24.187 -0.698,-28.247 0.524,-31.303c1.528,-3.973 4.235,-7.641 9.256,-12.574l4.628,-4.584l0.305,-3.711c0.175,-2.052 0.786,-6.156 1.397,-9.081c3.668,-18.337 13.316,-35.625 26.064,-46.802c8.252,-7.247 15.586,-11.307 23.445,-12.966c5.064,-1.048 14.058,-1.048 19.733,0.043l4.235,0.83l5.807,-3.536c28.247,-17.115 59.462,-27.68 93.56,-31.696c8.12,-0.961 21.785,-1.616 28.159,-1.31l5.458,0.262l12.006,-11.22c6.592,-6.156 12.442,-11.657 13.01,-12.181l1.048,-1.004l-3.406,-2.096c-3.775,-2.36 -6.669,-5.034 -8.473,-7.778c8.266,-3.215 15.293,-7.673 21.083,-13.005c1.496,2.125 2.605,3.681 2.845,3.975l0.743,0.917l1.528,-1.136c3.713,-2.81 8.126,-5.993 12.927,-9.345c2.8,3.894 6.21,7.336 10.1,10.179c-2.803,2.272 -5.605,4.599 -8.402,6.981c-12.006,10.216 -25.977,23.401 -35.232,33.224l-7.422,7.815l7.815,0.786c13.403,1.353 78.759,10.172 100.763,13.621l3.929,0.612l-12.486,0.087l-5.763,2.357c-37.939,15.543 -77.93,39.424 -111.198,66.317c-15.455,12.53 -35.756,32.351 -46.932,45.929c-1.223,1.441 -1.878,2.401 -1.528,2.139c0.349,-0.262 5.195,-3.885 10.696,-8.033c73.04,-54.835 135.69,-93.298 171.796,-105.435l5.457,-1.833l-3.929,-0.524c-2.14,-0.306 -4.104,-0.611 -4.366,-0.699c-0.219,-0.087 2.794,-0.131 6.767,-0.131c5.85,0 6.854,0.088 5.37,0.48c-1.834,0.437 -2.576,1.179 -1.179,1.179c0.393,0 7.902,1.004 16.721,2.183c47.108,6.505 78.28,9.911 99.585,11.002c8.863,0.437 11.831,0.393 21.392,-0.262c6.113,-0.393 14.189,-0.917 17.9,-1.179c11.832,-0.786 19.166,-2.139 25.453,-4.758c9.474,-3.93 18.162,-12.487 25.89,-25.453c5.491,-9.204 12.626,-24.485 18.179,-38.225c3.246,0.775 6.559,1.149 9.873,1.123c1.676,0.905 3.395,1.688 5.144,2.348c-0.092,0.276 -0.185,0.553 -0.278,0.831c-8.47,25.409 -20.825,64.877 -20.432,65.269c0.262,0.262 5.763,-2.139 26.064,-11.307c49.346,-22.438 93.356,-44.08 121.249,-59.643c7.69,4.671 16.687,7.358 26.247,7.358c3.742,-0 7.394,-0.401 10.913,-1.163Zm80.009,-39.981c-0.742,-0.611 -1.702,-1.135 -2.095,-1.135c-1.965,0.044 -4.061,2.314 -6.855,7.378c-1.091,2.052 -2.75,4.148 -4.628,5.894c-24.317,22.964 -170.704,92.163 -263.434,124.557c-5.763,2.009 -9.867,3.537 -9.168,3.362c0.742,-0.131 5.457,-1.222 10.521,-2.401c19.69,-4.497 36.106,-7.378 42.436,-7.378c8.164,-0 5.239,3.929 -10.827,14.625c-7.378,4.89 -23.357,14.669 -30.648,18.73c-1.659,0.916 -2.969,1.702 -2.969,1.79c0,0.305 -12.486,5.806 238.593,-105.566c20.912,-9.3 39.249,-17.202 40.821,-17.595c3.798,-1.004 9.91,-1.004 13.315,0c4.192,1.223 8.033,3.537 12.181,7.248c5.195,4.715 5.588,4.671 8.732,-0.131c3.58,-5.501 6.767,-8.121 12.137,-9.954c2.401,-0.83 3.318,-0.874 7.334,-0.655c2.532,0.131 5.72,0.393 7.073,0.524c4.715,0.523 7.509,-0.83 9.125,-4.41c1.571,-3.449 0.785,-11.613 -1.79,-18.162c-2.183,-5.501 -3.362,-5.588 -16.853,-1.048c-15.455,5.196 -21.13,6.2 -26.937,4.846c-3.667,-0.873 -5.501,-1.789 -10.783,-5.369c-4.977,-3.406 -7.946,-6.2 -11.352,-10.653c-1.397,-1.834 -3.187,-3.842 -3.929,-4.497Zm-431.126,154.813c-8.295,-2.096 -21.436,0.262 -42.043,7.596c-15.892,5.676 -19.646,7.422 -28.902,13.534c-11.351,7.509 -22.615,17.114 -37.328,31.827c-5.501,5.545 -10.74,10.915 -11.569,11.963l-1.485,1.921l3.668,-0.306c18.293,-1.572 54.223,-11.046 81.204,-21.436c25.89,-9.998 42.087,-19.778 46.06,-27.854c1.004,-2.14 1.179,-2.882 0.96,-4.89c-0.305,-3.1 -2.27,-7.335 -4.104,-8.95c-1.79,-1.572 -4.147,-2.838 -6.461,-3.405Zm-102.379,-64.746l7.64,-2.532l-27.068,0l-5.675,2.314c-58.59,24.056 -109.496,61.078 -137,99.585c-3.799,5.282 -9.911,14.713 -9.911,15.236c0,0.131 4.235,-3.274 9.387,-7.596c30.692,-25.671 65.356,-51.823 92.992,-70.072c28.684,-18.904 50.731,-30.604 69.635,-36.935Zm388.778,92.949c2.881,-1.354 5.064,-2.489 4.802,-2.489c-0.218,0 -4.846,1.834 -10.26,4.061c-39.729,16.328 -72.472,32.787 -93.647,47.02l-5.675,3.798l-2.358,15.979c-1.31,8.819 -2.27,16.066 -2.183,16.197c0.48,0.437 29.601,-13.141 41.869,-19.515c15.236,-7.946 23.706,-13.141 30.124,-18.468c14.232,-11.918 43.658,-30.997 65.269,-42.261c4.104,-2.139 7.029,-3.755 6.549,-3.58c-11.002,3.58 -60.904,21.873 -78.018,28.64c-7.858,3.1 -14.625,5.632 -15.018,5.632c-1.266,-0 0.044,-1.092 6.112,-5.239c3.143,-2.139 6.985,-4.934 8.557,-6.2c1.572,-1.266 4.89,-3.536 7.422,-5.064c4.366,-2.663 25.235,-13.272 36.455,-18.511Zm-175.245,9.867c-19.952,-4.235 -38.55,13.272 -46.059,43.265c-2.62,10.565 -3.493,19.428 -3.187,32.307c0.261,10.042 0.916,15.586 2.75,23.357c5.588,23.707 18.249,40.69 33.399,44.794c3.405,0.917 10.172,1.048 13.49,0.218c3.493,-0.829 8.95,-3.536 12.093,-5.894c12.836,-9.735 21.873,-29.513 24.405,-53.437c0.83,-7.641 0.612,-22.615 -0.436,-29.688c-4.41,-29.557 -18.73,-51.168 -36.455,-54.922Zm-444.311,-81.772c-6.505,-2.969 -19.864,2.619 -29.513,12.311c-9.256,9.299 -20.694,27.549 -24.492,39.031c-2.751,8.339 -0.306,18.162 5.02,20.17c2.489,0.917 5.982,-1.222 10.915,-6.68c3.624,-3.973 20.563,-24.056 24.711,-29.251c6.941,-8.644 11.7,-18.336 13.577,-27.636c1.266,-6.068 1.223,-7.291 -0.218,-7.945Zm800.869,-47.85c-6.025,-1.397 -14.669,-0.524 -19.69,2.052c-7.16,3.624 -13.752,10.653 -18.162,19.428c-13.84,27.548 -10.914,75.616 6.156,100.414c4.54,6.593 10.085,11.308 16.59,14.014c2.445,1.048 3.318,1.179 7.99,1.179c5.806,-0.043 8.207,-0.655 12.835,-3.361c3.231,-1.921 9.867,-8.557 12.399,-12.399c7.073,-10.784 11.701,-24.886 13.622,-41.432c0.873,-7.378 0.873,-22.703 -0,-29.993c-1.965,-16.853 -7.466,-30.78 -15.674,-39.948c-4.147,-4.584 -10.783,-8.688 -16.066,-9.954Zm-228.196,-119.357c9.184,1.128 18.548,2.362 28.11,3.706l14.129,2.012l0,20.768c-0.941,-0.039 -1.871,-0.08 -2.778,-0.121c-12.205,-0.566 -24.984,-0.702 -33.109,-0.432c0.384,-8.879 -1.734,-17.937 -6.352,-25.933Z" style="fill-rule:nonzero;"/>
    <g transform="matrix(1,0,0,1,36.7972,228)">
        <path d="M264.712,166.727c0,-25.189 -20.891,-45.19 -46.329,-45.19l-62.122,0c-82.687,-0.858 -95.566,92.42 -39.506,121.903c7.443,3.721 15.745,6.87 23.761,7.442c2.29,0.859 1.718,3.721 -0.572,3.721c-13.455,0 -28.342,-3.721 -39.469,-11.163c-12.592,9.16 -18.029,20.609 -18.029,36.066c-0,20.323 21.172,45.762 45.474,45.762l62.695,0c90.696,0 97.279,-112.17 20.898,-129.631c-2.29,-0.572 -1.432,-3.721 0.859,-3.721c11.451,0.859 22.577,3.721 32.021,9.16c13.451,-6.87 20.319,-19.464 20.319,-34.349Z" style="fill-rule:nonzero;"/>
        <path d="M273.334,167.593l-0,112.191c-0,24.622 20.013,45.198 45.468,45.198l75.268,0c31.767,0 45.218,-27.447 45.218,-45.198c0,-12.024 -1.431,-17.177 -4.293,-22.045c-10.589,12.598 -25.471,15.461 -40.353,14.029c-2.003,0 -2.003,-3.436 0,-3.436c12.02,-1.431 23.468,-4.867 32.054,-14.314c12.592,-12.598 15.454,-34.605 7.727,-51.496c-11.448,12.024 -26.902,15.46 -42.642,13.456c-2.004,-0.859 -2.004,-3.722 -0,-3.722c17.171,-0.573 30.622,-5.726 39.78,-20.614c18.602,-28.916 -1.431,-70.105 -37.491,-70.105l-74.695,0c-26.88,0 -46.041,20.576 -46.041,46.056Z" style="fill-rule:nonzero;"/>
        <path d="M544.622,157.306l-22.89,-22.891c-16.309,-18.029 -44.636,-18.029 -61.803,-0c-17.457,17.454 -17.457,46.354 0,64.381l21.745,22.891l-24.32,25.752c-17.172,18.313 -17.172,47.213 -0,64.381c17.453,18.314 44.921,18.314 62.089,-0l25.179,-25.753l25.179,25.753c17.167,18.314 44.635,18.314 62.093,-0c17.171,-17.168 17.171,-46.068 -0,-64.381l-24.325,-25.752l21.749,-22.891c17.457,-18.027 17.457,-46.927 -0,-64.381c-17.171,-18.029 -44.639,-18.029 -61.806,-0l-22.89,22.891Z" style="fill-rule:nonzero;"/>
        <path d="M746.083,157.306l-22.573,-22.891c-17.171,-18.029 -44.932,-18.029 -62.103,-0c-17.171,17.454 -17.171,46.354 -0,64.381l39.208,40.059l-0,40.059c-0,25.18 20.605,45.496 45.468,45.496c25.185,-0 45.791,-20.316 45.791,-45.496l-0,-40.059l39.207,-40.059c17.172,-18.027 17.172,-46.927 0,-64.381c-17.171,-18.029 -45.504,-18.029 -62.961,-0l-22.037,22.891Z" style="fill-rule:nonzero;"/>
    </g>
    <g transform="matrix(1,0,0,1,-57.0685,-2)">
        <g transform="matrix(286.19,0,0,286.19,83,325)">
            <path d="M0.635,-0.553c-0,-0.088 -0.073,-0.158 -0.162,-0.158l-0.217,0c-0.289,-0.003 -0.334,0.323 -0.138,0.426c0.026,0.013 0.055,0.024 0.083,0.026c0.008,0.003 0.006,0.013 -0.002,0.013c-0.047,0 -0.099,-0.013 -0.138,-0.039c-0.044,0.032 -0.063,0.072 -0.063,0.126c0,0.071 0.074,0.16 0.159,0.16l0.219,-0c0.317,-0 0.34,-0.392 0.073,-0.453c-0.008,-0.002 -0.005,-0.013 0.003,-0.013c0.04,0.003 0.079,0.013 0.112,0.032c0.047,-0.024 0.071,-0.068 0.071,-0.12Z" style="fill-rule:nonzero;"/>
        </g>
        <g transform="matrix(286.19,0,0,286.19,273.316,325)">
            <path d="M0.341,0.007c0.186,-0 0.341,-0.155 0.341,-0.341l-0,-0.215c-0,-0.088 -0.073,-0.161 -0.158,-0.161c-0.089,0 -0.161,0.073 -0.161,0.161l0,0.196c0,0.012 -0.01,0.025 -0.022,0.025c-0.013,0 -0.022,-0.013 -0.022,-0.025l-0,-0.196c-0,-0.088 -0.07,-0.161 -0.158,-0.161c-0.089,0 -0.161,0.073 -0.161,0.161l0,0.215c0,0.186 0.154,0.341 0.341,0.341Z" style="fill-rule:nonzero;"/>
        </g>
        <g transform="matrix(286.19,0,0,286.19,476.511,325)">
            <path d="M0.166,0.007c0.088,-0 0.161,-0.075 0.161,-0.163l0,-0.081c0,-0.008 0.007,-0.01 0.01,-0.002l0.018,0.098c0.16,0.005 0.292,-0.125 0.292,-0.284c-0,-0.158 -0.125,-0.285 -0.284,-0.285l-0.197,0c-0.093,0 -0.166,0.073 -0.166,0.162l0,0.392c0,0.091 0.073,0.163 0.166,0.163Zm0.176,-0.469c0.021,0 0.039,0.016 0.039,0.037c0,0.021 -0.018,0.039 -0.039,0.039c-0.005,0 -0.01,-0.002 -0.015,-0.005l0,-0.069c0.005,-0.002 0.01,-0.002 0.015,-0.002Z" style="fill-rule:nonzero;"/>
        </g>
        <g transform="matrix(286.19,0,0,286.19,666.827,325)">
            <path d="M0,-0.55l0,0.392c0,0.086 0.07,0.158 0.159,0.158l0.263,-0c0.111,-0 0.158,-0.096 0.158,-0.158c-0,-0.042 -0.005,-0.06 -0.015,-0.077c-0.037,0.044 -0.089,0.054 -0.141,0.049c-0.007,-0 -0.007,-0.012 -0,-0.012c0.042,-0.005 0.082,-0.017 0.112,-0.05c0.044,-0.044 0.054,-0.121 0.027,-0.18c-0.04,0.042 -0.094,0.054 -0.149,0.047c-0.007,-0.003 -0.007,-0.013 -0,-0.013c0.06,-0.002 0.107,-0.02 0.139,-0.072c0.065,-0.101 -0.005,-0.245 -0.131,-0.245l-0.261,0c-0.094,0 -0.161,0.072 -0.161,0.161Z" style="fill-rule:nonzero;"/>
        </g>
        <g transform="matrix(286.19,0,0,286.19,839.399,325)">
            <path d="M0.158,0.002c0.087,-0 0.155,-0.065 0.16,-0.149l0.086,0.102c0.054,0.073 0.162,0.062 0.219,0.005c0.057,-0.057 0.065,-0.141 0.02,-0.205c-0.026,0.03 -0.057,0.051 -0.09,0.066c-0.006,0.003 -0.011,-0.007 -0.006,-0.01c0.076,-0.053 0.122,-0.139 0.122,-0.237c-0,-0.157 -0.127,-0.284 -0.284,-0.284l-0.224,0c-0.089,0 -0.162,0.07 -0.162,0.158l0,0.392c0,0.089 0.073,0.162 0.159,0.162Zm0.178,-0.46c0.021,0 0.036,0.018 0.036,0.039c0,0.021 -0.015,0.037 -0.036,0.037c-0.008,0 -0.013,0 -0.018,-0.003l0,-0.068c0.005,-0.003 0.01,-0.005 0.018,-0.005Z" style="fill-rule:nonzero;"/>
        </g>
    </g>
</svg>
