<?xml version="1.0" encoding="UTF-8" standalone="no"?><!DOCTYPE svg PUBLIC "-//W3C//DTD SVG 1.1//EN" "http://www.w3.org/Graphics/SVG/1.1/DTD/svg11.dtd"><svg width="1920px" height="400px" version="1.1" xmlns="http://www.w3.org/2000/svg" xmlns:xlink="http://www.w3.org/1999/xlink" xml:space="preserve" xmlns:serif="http://www.serif.com/" style="fill-rule:evenodd;clip-rule:evenodd;stroke-linejoin:round;stroke-miterlimit:2;"><g transform="matrix(0.980869,0,0,0.980869,50.2115,2.32622)"><g transform="matrix(558.419,0,0,558.419,0,400)"><path d="M0.635,-0.553C0.635,-0.641 0.562,-0.711 0.473,-0.711L0.256,-0.711C-0.033,-0.714 -0.078,-0.388 0.118,-0.285C0.144,-0.272 0.173,-0.261 0.201,-0.259C0.209,-0.256 0.207,-0.246 0.199,-0.246C0.152,-0.246 0.1,-0.259 0.061,-0.285C0.017,-0.253 -0.002,-0.213 -0.002,-0.159C-0.002,-0.088 0.072,0.001 0.157,0.001L0.376,0.001C0.693,0.001 0.716,-0.391 0.449,-0.452C0.441,-0.454 0.444,-0.465 0.452,-0.465C0.492,-0.462 0.531,-0.452 0.564,-0.433C0.611,-0.457 0.635,-0.501 0.635,-0.553Z" style="fill-rule:nonzero;"/></g><g transform="matrix(558.419,0,0,558.419,371.348,400)"><path d="M0.635,-0.553C0.635,-0.641 0.562,-0.711 0.473,-0.711L0.256,-0.711C-0.033,-0.714 -0.078,-0.388 0.118,-0.285C0.144,-0.272 0.173,-0.261 0.201,-0.259C0.209,-0.256 0.207,-0.246 0.199,-0.246C0.152,-0.246 0.1,-0.259 0.061,-0.285C0.017,-0.253 -0.002,-0.213 -0.002,-0.159C-0.002,-0.088 0.072,0.001 0.157,0.001L0.376,0.001C0.693,0.001 0.716,-0.391 0.449,-0.452C0.441,-0.454 0.444,-0.465 0.452,-0.465C0.492,-0.462 0.531,-0.452 0.564,-0.433C0.611,-0.457 0.635,-0.501 0.635,-0.553Z" style="fill-rule:nonzero;"/></g><g transform="matrix(558.419,0,0,558.419,742.697,400)"><path d="M0,-0.55L0,-0.158C0,-0.072 0.07,-0 0.159,-0L0.422,-0C0.533,-0 0.58,-0.096 0.58,-0.158C0.58,-0.2 0.575,-0.218 0.565,-0.235C0.528,-0.191 0.476,-0.181 0.424,-0.186C0.417,-0.186 0.417,-0.198 0.424,-0.198C0.466,-0.203 0.506,-0.215 0.536,-0.248C0.58,-0.292 0.59,-0.369 0.563,-0.428C0.523,-0.386 0.469,-0.374 0.414,-0.381C0.407,-0.384 0.407,-0.394 0.414,-0.394C0.474,-0.396 0.521,-0.414 0.553,-0.466C0.618,-0.567 0.548,-0.711 0.422,-0.711L0.161,-0.711C0.067,-0.711 0,-0.639 0,-0.55Z" style="fill-rule:nonzero;"/></g><g transform="matrix(558.419,0,0,558.419,1079.42,400)"><path d="M0.345,-0.586L0.265,-0.666C0.208,-0.729 0.109,-0.729 0.049,-0.666C-0.012,-0.605 -0.012,-0.504 0.049,-0.441L0.125,-0.361L0.04,-0.271C-0.02,-0.207 -0.02,-0.106 0.04,-0.046C0.101,0.018 0.197,0.018 0.257,-0.046L0.345,-0.136L0.433,-0.046C0.493,0.018 0.589,0.018 0.65,-0.046C0.71,-0.106 0.71,-0.207 0.65,-0.271L0.565,-0.361L0.641,-0.441C0.702,-0.504 0.702,-0.605 0.641,-0.666C0.581,-0.729 0.485,-0.729 0.425,-0.666L0.345,-0.586Z" style="fill-rule:nonzero;"/></g><g transform="matrix(558.419,0,0,558.419,1477.58,400)"><path d="M0.336,-0.586L0.257,-0.666C0.197,-0.729 0.1,-0.729 0.04,-0.666C-0.02,-0.605 -0.02,-0.504 0.04,-0.441L0.177,-0.301L0.177,-0.161C0.177,-0.073 0.249,-0.002 0.336,-0.002C0.424,-0.002 0.496,-0.073 0.496,-0.161L0.496,-0.301L0.633,-0.441C0.693,-0.504 0.693,-0.605 0.633,-0.666C0.573,-0.729 0.474,-0.729 0.413,-0.666L0.336,-0.586Z" style="fill-rule:nonzero;"/></g></g></svg>